<?xml version="1.0" encoding="UTF-8" standalone="no"?>
<svg
   xmlns:dc="http://purl.org/dc/elements/1.1/"
   xmlns:cc="http://creativecommons.org/ns#"
   xmlns:rdf="http://www.w3.org/1999/02/22-rdf-syntax-ns#"
   xmlns:svg="http://www.w3.org/2000/svg"
   xmlns="http://www.w3.org/2000/svg"
   xmlns:xlink="http://www.w3.org/1999/xlink"
   xmlns:sodipodi="http://sodipodi.sourceforge.net/DTD/sodipodi-0.dtd"
   xmlns:inkscape="http://www.inkscape.org/namespaces/inkscape"
   version="1.1"
   width="48"
   height="48"
   viewBox="0 0 48 48"
   id="svg4699"
   inkscape:version="0.91 r13725"
   sodipodi:docname="irc_launcher.svg"
   inkscape:export-filename="C:\Users\madsk_000\Downloads\irc.png"
   inkscape:export-xdpi="720"
   inkscape:export-ydpi="720">
  <metadata
     id="metadata4707">
    <rdf:RDF>
      <cc:Work
         rdf:about="">
        <dc:format>image/svg+xml</dc:format>
        <dc:type
           rdf:resource="http://purl.org/dc/dcmitype/StillImage" />
        <dc:title></dc:title>
      </cc:Work>
    </rdf:RDF>
  </metadata>
  <defs
     id="defs4705">
    <linearGradient
       inkscape:collect="always"
       id="linearGradient6413">
      <stop
         style="stop-color:#000000;stop-opacity:0.23283581"
         offset="0"
         id="stop6415" />
      <stop
         style="stop-color:#000000;stop-opacity:0;"
         offset="1"
         id="stop6417" />
    </linearGradient>
    <radialGradient
       inkscape:collect="always"
       xlink:href="#linearGradient6413"
       id="radialGradient6419"
       cx="22.298363"
       cy="17.816542"
       fx="22.298363"
       fy="17.816542"
       r="7.8265486"
       gradientTransform="matrix(0.05233688,12.510501,-8.552143,0.03576207,153.53958,-276.70598)"
       gradientUnits="userSpaceOnUse" />
  </defs>
  <sodipodi:namedview
     pagecolor="#0fef17"
     bordercolor="#666666"
     borderopacity="1"
     objecttolerance="10"
     gridtolerance="10"
     guidetolerance="10"
     inkscape:pageopacity="0"
     inkscape:pageshadow="2"
     inkscape:window-width="1920"
     inkscape:window-height="1017"
     id="namedview4703"
     showgrid="false"
     inkscape:zoom="11.313709"
     inkscape:cx="-20.186478"
     inkscape:cy="31.111884"
     inkscape:window-x="1912"
     inkscape:window-y="-8"
     inkscape:window-maximized="1"
     inkscape:current-layer="svg4699" />
  <rect
     style="opacity:1;fill:#ffffff;fill-opacity:1;fill-rule:nonzero"
     id="rect4138"
     width="41.144775"
     height="39.111843"
     x="2.4306796"
     y="5.5294008" />
  <path
     style="fill:#1e88e5;fill-opacity:1;fill-rule:nonzero"
     d="M 0.04352653,5.3646076 C -0.06172242,2.15237 3.0860663,-0.35867566 6.1807271,0.04211693 18.512541,0.06028623 30.84666,0.00558323 43.177025,0.06960923 c 3.075402,0.21758061 5.154256,3.30982117 4.779339,6.24394757 -0.01839,12.2839452 0.03657,24.5701942 -0.0275,36.8526912 -0.217631,3.07473 -3.310544,5.153132 -6.245307,4.778296 -12.287406,-0.0184 -24.577135,0.03668 -36.863088,-0.02763 C 1.7451376,47.699673 -0.33059557,44.605957 0.04351593,41.673096 Z M 10.690824,39.960798 l 5.323648,0 0.931639,-5.322489 10.647296,0 -0.931636,5.322489 5.323647,0 0.93164,-5.322489 5.323649,0 0.958254,-5.322492 -5.323648,0 1.863277,-10.644984 5.323649,0 0.931637,-5.322488 -5.323646,0 0.958256,-5.3224921 -5.323649,0 -0.958256,5.3224921 -10.647299,0 0.958258,-5.3224921 -5.323649,0 -0.958257,5.3224921 -5.323649,0 -0.931638,5.322488 5.323648,0 -1.863276,10.644984 -5.3236485,0 -0.9582571,5.322492 5.3236486,0 z m 9.07682,-21.289965 10.647297,0 -1.863277,10.644984 -10.647297,0 z"
     id="path4701-2"
     inkscape:connector-curvature="0"
     sodipodi:nodetypes="ccccccccccccccccccccccccccccccccccccccccccc" />
  <path
     style="fill:url(#radialGradient6419);fill-opacity:1;fill-rule:evenodd"
     d="m 21.665406,8.0209796 -0.966991,5.3328874 6.320457,-0.01989 z m 15.960553,0 -0.966992,5.3217694 5.339243,0.0071 -0.940997,5.32014 -5.314426,0.0065 -1.840346,10.64923 5.287644,-0.0069 -0.970677,5.305466 -5.302617,0.01752 -0.935809,5.313152 -5.30179,0.01687 0.982645,-5.383025 -10.718186,0.0033 -0.93479,5.378548 -5.31828,0.0062 0.301955,-1.790999 0.628643,-3.543064 -5.3288467,0.0012 4.5337627,4.450315 -0.145257,0.86642 8.045794,7.976269 23.379581,0.02034 c 2.39881,0.410345 6.2949,-2.194004 5.761546,-5.442868 l 0.09037,-24.16664 z M 14.428573,18.67116 l -5.281858,0.0012 4.495936,4.551439 z m 5.339245,-0.01579 -1.868521,10.673091 10.646404,0 L 30.415117,18.67616 19.767818,18.6554 Z"
     id="path6342-5"
     inkscape:connector-curvature="0"
     sodipodi:nodetypes="ccccccccccccccccccccccccccccccccccccccc" />
  <g
     inkscape:groupmode="layer"
     id="layer1"
     inkscape:label="Layer 1"
     transform="translate(0,24)" />
</svg>
