<?xml version="1.0" encoding="UTF-8" standalone="no"?>
<svg
   xmlns:dc="http://purl.org/dc/elements/1.1/"
   xmlns:cc="http://creativecommons.org/ns#"
   xmlns:rdf="http://www.w3.org/1999/02/22-rdf-syntax-ns#"
   xmlns:svg="http://www.w3.org/2000/svg"
   xmlns="http://www.w3.org/2000/svg"
   xmlns:sodipodi="http://sodipodi.sourceforge.net/DTD/sodipodi-0.dtd"
   xmlns:inkscape="http://www.inkscape.org/namespaces/inkscape"
   version="1.1"
   width="32"
   height="32"
   viewBox="0 0 32 32"
   id="svg4699"
   inkscape:version="0.91 r13725"
   sodipodi:docname="irc_notification.svg"
   inkscape:export-filename="C:\Users\madsk_000\Downloads\irc.png"
   inkscape:export-xdpi="720"
   inkscape:export-ydpi="720">
  <metadata
     id="metadata4707">
    <rdf:RDF>
      <cc:Work
         rdf:about="">
        <dc:format>image/svg+xml</dc:format>
        <dc:type
           rdf:resource="http://purl.org/dc/dcmitype/StillImage" />
        <dc:title></dc:title>
      </cc:Work>
    </rdf:RDF>
  </metadata>
  <defs
     id="defs4705" />
  <sodipodi:namedview
     pagecolor="#0deb23"
     bordercolor="#666666"
     borderopacity="1"
     objecttolerance="10"
     gridtolerance="10"
     guidetolerance="10"
     inkscape:pageopacity="0"
     inkscape:pageshadow="2"
     inkscape:window-width="1920"
     inkscape:window-height="1017"
     id="namedview4703"
     showgrid="false"
     inkscape:zoom="11.313709"
     inkscape:cx="9.2601615"
     inkscape:cy="12.56104"
     inkscape:window-x="-8"
     inkscape:window-y="-8"
     inkscape:window-maximized="1"
     inkscape:current-layer="svg4699" />
  <path
     style="fill:#ffffff;fill-opacity:1;fill-rule:nonzero"
     d="m 6.9530202,28 3.5794178,0 0.626398,-3.999998 7.158837,0 L 17.691276,28 l 3.579417,0 0.626399,-3.999998 3.579419,0 L 26.120805,20 l -3.579418,0 1.252797,-8.000002 3.579418,0 L 28,8 24.420583,8 25.064877,4 21.485459,4 20.841164,8 13.682326,8 14.326622,4 10.747203,4 10.102908,8 6.5234901,8 l -0.6263982,3.999998 3.5794181,0 L 8.223714,20 4.6442956,20 4,24.000002 l 3.5794185,0 z m 6.1029078,-16.000002 7.158837,0 L 18.961968,20 11.803132,20 Z"
     id="path4701-2"
     inkscape:connector-curvature="0"
     sodipodi:nodetypes="cccccccccccccccccccccccccccccccccc" />
  <g
     inkscape:groupmode="layer"
     id="layer1"
     inkscape:label="Layer 1"
     transform="translate(0,8)" />
</svg>
