<?xml version="1.0" encoding="UTF-8" standalone="no"?>
<svg
   xmlns:dc="http://purl.org/dc/elements/1.1/"
   xmlns:cc="http://creativecommons.org/ns#"
   xmlns:rdf="http://www.w3.org/1999/02/22-rdf-syntax-ns#"
   xmlns:svg="http://www.w3.org/2000/svg"
   xmlns="http://www.w3.org/2000/svg"
   xmlns:xlink="http://www.w3.org/1999/xlink"
   xmlns:sodipodi="http://sodipodi.sourceforge.net/DTD/sodipodi-0.dtd"
   xmlns:inkscape="http://www.inkscape.org/namespaces/inkscape"
   version="1.1"
   width="24"
   height="24"
   viewBox="0 0 24 24"
   id="svg4699"
   inkscape:version="0.91 r13725"
   sodipodi:docname="pound-box.svg"
   inkscape:export-filename="C:\Users\madsk_000\Downloads\irc.png"
   inkscape:export-xdpi="720"
   inkscape:export-ydpi="720">
  <metadata
     id="metadata4707">
    <rdf:RDF>
      <cc:Work
         rdf:about="">
        <dc:format>image/svg+xml</dc:format>
        <dc:type
           rdf:resource="http://purl.org/dc/dcmitype/StillImage" />
      </cc:Work>
    </rdf:RDF>
  </metadata>
  <defs
     id="defs4705">
    <linearGradient
       inkscape:collect="always"
       id="linearGradient6413">
      <stop
         style="stop-color:#000000;stop-opacity:0.23283581"
         offset="0"
         id="stop6415" />
      <stop
         style="stop-color:#000000;stop-opacity:0;"
         offset="1"
         id="stop6417" />
    </linearGradient>
    <radialGradient
       inkscape:collect="always"
       xlink:href="#linearGradient6413"
       id="radialGradient6419"
       cx="22.298363"
       cy="17.816542"
       fx="22.298363"
       fy="17.816542"
       r="7.8265485"
       gradientTransform="matrix(0.02419067,5.783747,-3.952893,0.01653321,71.967654,-127.11523)"
       gradientUnits="userSpaceOnUse" />
  </defs>
  <sodipodi:namedview
     pagecolor="#ffffff"
     bordercolor="#666666"
     borderopacity="1"
     objecttolerance="10"
     gridtolerance="10"
     guidetolerance="10"
     inkscape:pageopacity="0"
     inkscape:pageshadow="2"
     inkscape:window-width="1920"
     inkscape:window-height="1017"
     id="namedview4703"
     showgrid="false"
     inkscape:zoom="22.627417"
     inkscape:cx="18.791543"
     inkscape:cy="14.497383"
     inkscape:window-x="1912"
     inkscape:window-y="-8"
     inkscape:window-maximized="1"
     inkscape:current-layer="svg4699" />
  <path
     style="fill:#1e88e5;fill-opacity:1;fill-rule:nonzero"
     d="M 1.0201184,3.2892162 C 0.97147116,1.8041618 2.4264132,0.64327682 3.8567989,0.82856817 c 5.6998979,0.00843 11.4008611,-0.0168883 17.1000891,0.0127045 1.421484,0.10059007 2.382353,1.53016838 2.209062,2.88664838 -0.0085,5.6790068 0.0169,11.3590799 -0.01271,17.0374179 -0.100591,1.421483 -1.530169,2.382352 -2.886648,2.209061 -5.679373,-0.0085 -11.3598184,0.01696 -17.0385191,-0.01277 C 1.8066215,22.861198 0.84719512,21.430938 1.0201135,20.075043 Z m 4.9212959,15.9942118 2.4606476,0 0.4306136,-2.460647 4.9212955,0 -0.430612,2.460647 2.460647,0 0.430614,-2.460647 2.460648,0 0.442916,-2.460649 -2.460648,0 0.861227,-4.9212965 2.460648,0 0.430613,-2.4606474 -2.460647,0 0.442916,-2.460648 -2.460648,0 -0.442916,2.460648 -4.921297,0 0.442917,-2.460648 -2.4606479,0 -0.4429165,2.460648 -2.460648,0 -0.4306134,2.4606474 2.4606478,0 -0.8612266,4.9212965 -2.4606479,0 -0.4429168,2.460649 2.460648,0 z m 4.1954047,-9.8425925 4.921296,0 -0.861227,4.9212965 -4.9212959,0 z"
     id="path4701-2"
     inkscape:connector-curvature="0"
     sodipodi:nodetypes="ccccccccccccccccccccccccccccccccccccccccccc" />
  <path
     style="fill:url(#radialGradient6419);fill-opacity:1;fill-rule:evenodd"
     d="m 11.013985,4.517287 -0.446954,2.465454 2.921384,-0.00919 z m 7.37714,0 -0.446954,2.4603145 2.467856,0.00329 -0.434939,2.4595602 -2.456385,0.00296 -0.850628,4.9232603 2.444006,-0.0032 -0.448657,2.452777 -2.450927,0.0081 -0.432541,2.456331 -2.450545,0.0078 0.454189,-2.488634 -4.9540611,0.0015 -0.4320704,2.486564 -2.4581661,0.0029 0.1395668,-0.827999 0.2905656,-1.637999 -2.4630508,5.42e-4 2.0955542,2.057431 -0.067139,0.400556 3.7188527,3.68752 10.8062952,0.0094 c 1.108756,0.189707 2.909571,-1.014313 2.663049,-2.5163 L 23.166766,9.291448 Z M 7.6690425,9.4409856 5.2277108,9.441527 7.3057809,11.545709 Z m 2.4678565,-0.00726 -0.8636503,4.9342918 4.9208833,0 0.864064,-4.9246806 -4.921297,-0.0096 z"
     id="path6342-5"
     inkscape:connector-curvature="0"
     sodipodi:nodetypes="ccccccccccccccccccccccccccccccccccccccc" />
</svg>
